<?xml version="1.0" encoding="UTF-8" standalone="no"?>
<!DOCTYPE svg PUBLIC "-//W3C//DTD SVG 1.1//EN" "http://www.w3.org/Graphics/SVG/1.1/DTD/svg11.dtd">
<svg width="100%" height="100%" viewBox="0 0 1024 1024" version="1.1" xmlns="http://www.w3.org/2000/svg" xmlns:xlink="http://www.w3.org/1999/xlink" xml:space="preserve" xmlns:serif="http://www.serif.com/" style="fill-rule:evenodd;clip-rule:evenodd;stroke-linejoin:round;stroke-miterlimit:2;">
    <g id="Group">
        <path id="P" d="M410.639,598.354C410.731,598.506 416.302,606.248 412.855,598.528C392.182,557.499 330.882,538.5 288.048,575.067C287.484,575.549 285.841,575.717 285.809,575.383C285.785,575.13 285.799,482.722 285.795,395.5C285.794,364.078 284.722,334.52 306.16,292.331C308.811,287.113 298.111,264.43 308.966,202.582C317.723,152.687 331.306,143.539 376.695,166.121C413.337,184.351 426.329,202.527 431.42,201.192C478.351,188.883 578.966,179.414 661.395,204.85C666.636,206.467 665.436,200.889 694.676,181.768C745.006,148.855 756.302,164.292 759.424,168.558C763.003,173.448 783.971,216.691 776.477,289.498C775.938,294.734 823.335,348.226 811.452,465.496C802.877,550.122 736.832,701.076 481.509,674.405C476.549,673.887 443.206,665.547 437.814,694.547C433.956,715.304 445.231,776.811 426.26,812.375C398.73,863.985 315.202,859.757 283.853,828.146C253.023,797.057 257.422,760.676 257.304,668.501C257.278,647.762 249.845,576.361 323.543,563.799C350.644,559.179 389.723,566.797 410.639,598.354Z" style="fill:rgb(201,162,126);stroke:black;stroke-width:15px;"/>
        <path id="Clock-Face" serif:id="Clock Face" d="M658.928,402.415C659.392,405.196 679.052,498.668 596.482,528.451C578.565,534.913 544.922,543.083 462.506,532.459C437.904,529.287 437.363,505.632 437.292,502.5C437.25,500.67 437.277,417.831 437.33,415.498C439.816,306.641 570.19,315.373 613.656,339.219C645.81,356.859 653.811,379.971 658.928,402.415Z" style="fill:rgb(253,250,247);stroke:black;stroke-width:15px;"/>
        <g id="Clock-Hand" serif:id="Clock Hand" transform="matrix(1,0,0,1,4,-2)">
            <path d="M553.673,445.743C553.714,446.236 553.734,446.734 553.734,447.237C553.734,457.171 545.669,465.237 535.734,465.237C525.8,465.237 517.734,457.171 517.734,447.237C517.734,437.302 525.8,429.237 535.734,429.237C538.737,429.237 541.569,429.974 544.06,431.276L597.292,384.896C600.875,381.774 606.319,382.149 609.441,385.732C612.563,389.315 612.189,394.759 608.606,397.881L553.673,445.743Z" style="fill:rgb(201,162,126);"/>
        </g>
        <g id="Ears">
            <path id="Ear-Right" serif:id="Ear Right" d="M744.338,221.534C744.717,223.977 747.49,241.847 746.161,252.389C745.794,255.304 740.937,248.618 727.837,239.069C703.513,221.34 700.13,222.597 701.811,220.681C705.859,216.066 731.717,193.138 740.304,209.607C741.846,212.564 744.068,220.563 744.338,221.534Z" style="fill:rgb(74,47,42);"/>
            <path id="Ear-Left" serif:id="Ear Left" d="M338.037,225.449C338.318,223.522 339.516,211.156 343.96,203.779C354.847,185.708 386.924,216.25 387.047,216.668C387.609,218.578 386.362,218.061 380.78,220.999C365.825,228.867 348.058,241.843 339.693,249.973C335.64,253.912 337.872,227.408 338.037,225.449Z" style="fill:rgb(74,47,42);"/>
        </g>
        <g id="Paw">
            <path id="Metacarpal-Pad" serif:id="Metacarpal Pad" d="M348.373,680.896C341.857,679.304 340.375,678.148 328.524,679.674C293.201,684.225 302.013,635.368 332.536,629.665C367.532,623.127 384.366,666.732 366.209,679.068C358.093,684.582 350.66,681.451 348.373,680.896Z" style="fill:rgb(74,47,42);"/>
            <path id="Digital-Pad-4" serif:id="Digital Pad 4" d="M379.213,626.368C388.281,608.785 403.464,618.327 403.677,628.488C404.131,650.203 370.751,651.749 379.213,626.368Z" style="fill:rgb(74,47,42);"/>
            <path id="Digital-Pad-3" serif:id="Digital Pad 3" d="M377.361,602.484C371.916,630.838 339.892,614.639 354.494,592.496C359.896,584.305 378.032,582.784 377.361,602.484Z" style="fill:rgb(74,47,42);"/>
            <path id="Digital-Pad-2" serif:id="Digital Pad 2" d="M311.769,587.747C325.215,575.736 337.862,593.857 333.797,605.597C326.156,627.663 297.532,606.598 311.769,587.747Z" style="fill:rgb(74,47,42);"/>
            <path id="Digital-Pad-1" serif:id="Digital Pad 1" d="M286.585,610.745C302.693,607.241 308.075,626.717 302.386,634.419C290.656,650.302 265.244,622.531 286.585,610.745Z" style="fill:rgb(74,47,42);"/>
        </g>
    </g>
</svg>
